<?xml version="1.0" encoding="UTF-8"?>
<svg id="Layer_1" style="enable-background:new 0 0 128 128;" version="1.1" viewBox="0 0 128 128" xml:space="preserve" xmlns="http://www.w3.org/2000/svg" xmlns:xlink="http://www.w3.org/1999/xlink"><script xmlns="">try {
                        Object.defineProperty(screen, "availTop", { value: 0 });
                    } catch (e) {}
                    try {
                        Object.defineProperty(screen, "availLeft", { value: 0 });
                    } catch (e) {}
                    try {
                        Object.defineProperty(screen, "availWidth", { value: 2560 });
                    } catch (e) {}
                    try {
                        Object.defineProperty(screen, "availHeight", { value: 1440 });
                    } catch (e) {}
                    try {
                        Object.defineProperty(screen, "colorDepth", { value: 24 });
                    } catch (e) {}
                    try {
                        Object.defineProperty(screen, "pixelDepth", { value: 24 });
                    } catch (e) {}
                    try {
                        Object.defineProperty(navigator, "hardwareConcurrency", { value: 8 });
                    } catch (e) {}
                    try {
                        Object.defineProperty(navigator, "appVersion", { value: "5.0 (X11)" });
                    } catch (e) {}
                    try {
                        Object.defineProperty(navigator, "doNotTrack", { value: "unspecified" });
                    } catch (e) {}
                    
            try {
                window.screenY = 0
            } catch (e) { }
        
            try {
                window.screenTop = 0
            } catch (e) { }
        
            try {
                window.top.window.outerHeight = window.screen.height
            } catch (e) { }
        
            try {
                window.screenX = 0
            } catch (e) { }
        
            try {
                window.screenLeft = 0
            } catch (e) { }
        
            try {
                window.top.window.outerWidth = window.screen.width
            } catch (e) { }
        </script><style type="text/css">.st0{fill:#FFFFFF;}</style><circle fill="#000" cx="64" cy="64" r="64"/><g><path class="st0" d="M103,29H25c-0.6,0-1,0.4-1,1v12c0,0.6,0.4,1,1,1h78c0.6,0,1-0.4,1-1V30C104,29.4,103.6,29,103,29z"/><path class="st0" d="M103,57H25c-0.6,0-1,0.4-1,1v12c0,0.6,0.4,1,1,1h78c0.6,0,1-0.4,1-1V58C104,57.4,103.6,57,103,57z"/><path class="st0" d="M103,85H25c-0.6,0-1,0.4-1,1v12c0,0.6,0.4,1,1,1h78c0.6,0,1-0.4,1-1V86C104,85.4,103.6,85,103,85z"/></g></svg>